 <svg version="1.0" xmlns="http://www.w3.org/2000/svg"  width="300.000000pt" height="93.000000pt" viewBox="0 0 300.000000 93.000000"  preserveAspectRatio="xMidYMid meet">  <g transform="translate(0.000000,93.000000) scale(0.100000,-0.100000)" fill="#1689fc" stroke="none"> <path d="M1215 918 c-77 -5 -362 -22 -633 -38 -272 -16 -495 -30 -496 -32 -2 -2 48 -78 110 -170 l112 -167 27 40 c31 44 32 56 15 157 -17 102 -35 94 -26 -11 7 -86 2 -117 -18 -116 -14 0 -151 207 -151 228 0 18 -25 15 548 49 170 9 310 15 312 12 6 -10 -451 -160 -488 -160 -28 0 -52 11 -98 45 -68 50 -109 62 -69 20 12 -13 50 -42 83 -65 50 -33 67 -40 92 -34 16 3 138 42 270 85 250 83 481 144 575 153 52 6 50 5 -30 -17 -171 -47 -367 -120 -502 -188 -113 -56 -248 -141 -260 -162 -7 -13 -8 -48 -4 -99 l6 -78 -54 35 c-76 48 -99 46 -172 -17 -99 -87 -211 -198 -292 -292 -60 -70 -71 -88 -52 -82 52 16 224 18 292 4 l68 -14 50 87 c130 225 361 462 605 621 107 70 240 137 349 176 65 24 74 30 55 35 -27 8 -31 7 -224 -5z m-205 -182 c0 -2 -18 -15 -40 -30 -22 -15 -50 -34 -62 -44 -55 -45 -159 -135 -218 -190 -71 -66 -80 -65 -80 7 0 58 32 88 181 166 150 79 219 108 219 91z m-496 -352 c25 -14 48 -29 51 -33 4 -8 -9 -28 -56 -85 -22 -25 -79 -116 -137 -215 -6 -11 -19 -12 -73 -2 -36 6 -96 11 -132 11 -50 0 -67 4 -67 13 0 15 181 203 274 285 33 29 68 52 77 52 9 0 37 -12 63 -26z"/> <path d="M2426 648 l-6 -43 -70 3 c-42 2 -70 0 -70 -6 0 -6 -3 -17 -6 -26 -5 -14 4 -16 65 -16 50 0 71 -4 71 -12 0 -7 -9 -65 -20 -128 -11 -63 -20 -116 -20 -117 0 -1 -20 4 -44 11 -43 13 -44 13 -49 -11 -3 -18 1 -26 17 -32 39 -15 91 -21 105 -12 11 7 60 245 61 294 0 4 11 7 25 7 20 0 25 5 25 26 0 22 -4 25 -21 21 -20 -5 -21 -3 -14 39 6 42 5 44 -18 44 -21 0 -26 -6 -31 -42z"/> <path d="M2689 638 c-19 -29 -56 -79 -82 -110 l-48 -58 31 0 c19 0 34 7 42 20 7 11 15 20 18 20 3 0 -4 -51 -17 -112 -28 -141 -28 -138 1 -138 28 0 27 -4 57 190 21 131 26 150 57 193 l34 47 -30 0 c-25 0 -35 -8 -63 -52z"/> <path d="M2810 621 l0 -69 -39 -7 c-31 -5 -40 -11 -44 -31 -4 -24 -3 -25 39 -18 l44 6 0 -73 c0 -137 31 -188 100 -169 48 14 56 21 62 53 6 32 7 32 -41 7 -36 -18 -40 -18 -53 -3 -8 10 -14 49 -16 103 l-4 87 61 5 c67 5 66 4 76 36 7 24 4 24 -109 7 l-28 -5 4 70 4 70 -28 0 c-28 0 -28 0 -28 -69z"/> <path d="M2936 672 c-4 -12 -14 -22 -22 -22 -19 0 -18 -5 9 -32 l22 -24 22 23 c17 17 19 24 9 30 -7 5 -17 17 -23 27 -10 19 -11 18 -17 -2z"/> <path d="M1130 650 c0 -11 -1 -23 -2 -27 -2 -3 32 -5 76 -4 72 2 78 1 71 -16 -3 -10 -9 -33 -12 -51 l-6 -33 -86 2 -86 2 -3 -28 -4 -27 81 3 c45 2 81 0 81 -4 0 -11 -138 -149 -175 -174 l-30 -21 27 -13 c25 -11 32 -9 83 31 31 24 70 61 87 84 17 23 35 45 39 50 4 4 17 -10 28 -32 11 -22 42 -63 68 -92 46 -50 49 -51 76 -39 l27 12 -54 54 c-44 44 -106 128 -106 145 0 2 37 1 81 -1 83 -3 98 3 99 39 0 12 -15 14 -90 12 -49 -2 -90 -1 -90 3 0 3 5 26 11 51 l12 45 71 -2 c70 -2 71 -2 74 24 l3 27 -175 0 c-169 0 -176 -1 -176 -20z m166 -169 c-10 -16 -36 -13 -36 3 0 17 21 27 34 16 4 -5 5 -13 2 -19z"/> <path d="M1642 658 c-6 -7 -20 -66 -31 -130 -22 -123 -43 -197 -67 -233 -16 -25 -10 -35 22 -35 17 0 26 11 43 52 11 29 26 74 32 101 10 40 15 47 35 47 28 0 28 4 8 -100 -15 -83 -10 -114 19 -105 7 2 33 8 59 15 33 9 48 18 52 33 7 29 3 31 -39 17 -20 -7 -38 -10 -41 -7 -10 9 19 147 31 147 7 0 27 -29 44 -64 27 -56 109 -147 130 -146 3 0 15 8 26 16 20 16 20 16 1 27 -11 7 -33 24 -50 39 -30 26 -31 27 -11 41 11 8 31 24 45 36 l25 20 -34 1 c-22 0 -43 -8 -57 -21 l-22 -21 -16 30 c-9 17 -16 33 -16 37 0 3 36 5 80 5 80 0 80 0 80 26 l0 26 -165 -5 c-91 -3 -165 -2 -165 2 0 4 5 33 11 65 l12 57 158 -3 c88 -2 159 0 159 4 0 3 3 13 6 22 5 14 -14 16 -174 16 -131 0 -182 -3 -190 -12z"/> <path d="M2137 658 c-12 -10 -25 -60 -47 -183 -17 -93 -30 -173 -30 -177 0 -5 33 -8 74 -8 86 0 73 -23 106 180 11 69 22 135 25 147 3 12 -2 28 -11 37 -19 19 -93 21 -117 4z m77 -85 c-3 -27 -8 -51 -11 -55 -4 -8 -63 -11 -63 -3 0 2 5 27 11 55 10 46 13 50 40 50 l30 0 -7 -47z m-29 -170 c-11 -67 -11 -68 -44 -71 -31 -3 -33 -1 -28 20 3 13 9 44 12 71 7 45 9 47 39 47 l32 0 -11 -67z"/> <path d="M1700 565 l0 -25 135 0 135 0 0 25 0 25 -135 0 -135 0 0 -25z"/> <path d="M2294 455 c8 -59 11 -65 33 -65 22 0 23 3 18 38 -15 90 -16 92 -39 92 -22 0 -22 -2 -12 -65z"/> <path d="M1208 139 c-24 -14 -23 -46 2 -54 32 -10 25 -35 -11 -35 -17 0 -28 -4 -24 -10 9 -14 48 -13 63 2 18 18 14 46 -8 53 -30 10 -25 35 8 35 21 0 24 2 12 10 -18 12 -21 12 -42 -1z"/> <path d="M2115 113 c-3 -21 -9 -48 -12 -60 -3 -13 -1 -23 5 -23 5 0 13 16 16 35 4 19 11 35 16 35 6 0 13 1 17 3 5 1 6 -15 5 -37 -3 -26 0 -36 7 -32 6 4 11 25 11 48 0 38 -2 40 -25 36 -21 -5 -25 -2 -20 13 4 11 2 19 -3 19 -5 0 -13 -17 -17 -37z"/> <path d="M2537 143 c-3 -5 -7 -30 -8 -57 -3 -36 0 -50 10 -54 10 -3 12 0 8 12 -4 9 -3 36 2 61 7 40 1 59 -12 38z"/> <path d="M1073 133 c12 -3 16 -11 12 -29 -3 -13 -7 -35 -10 -49 -3 -14 -1 -25 4 -25 10 0 21 34 21 68 0 14 8 26 23 32 18 7 13 9 -23 8 -25 0 -37 -2 -27 -5z"/> <path d="M1323 127 c-5 -7 -9 -30 -8 -52 0 -30 4 -41 18 -43 9 -2 17 1 17 7 0 6 -4 11 -10 11 -15 0 -12 27 6 44 14 14 14 18 1 31 -12 11 -17 12 -24 2z"/> <path d="M1746 133 c19 -4 20 -8 13 -46 -11 -55 -11 -57 1 -57 5 0 12 22 16 49 5 40 11 51 28 54 11 2 -1 4 -29 4 -27 0 -41 -2 -29 -4z"/> <path d="M1450 108 l25 -11 -31 -8 c-54 -15 -52 -63 2 -56 23 3 30 10 35 38 9 42 5 49 -29 48 l-27 0 25 -11z m10 -48 c0 -5 -9 -10 -20 -10 -11 0 -20 5 -20 10 0 6 9 10 20 10 11 0 20 -4 20 -10z"/> <path d="M1557 103 c-14 -51 -16 -73 -8 -73 11 0 21 25 21 51 0 10 7 19 15 19 8 0 15 5 15 10 0 17 -38 11 -43 -7z"/> <path d="M1861 106 c-21 -25 -10 -70 18 -74 13 -2 28 1 34 7 8 8 3 11 -16 11 -35 0 -35 18 1 22 19 2 27 9 27 23 0 25 -46 33 -64 11z m43 -5 c3 -5 -1 -12 -10 -15 -20 -8 -29 -1 -19 13 8 13 22 14 29 2z"/> <path d="M1988 94 c-8 -18 -9 -30 -1 -42 11 -19 53 -29 53 -13 0 6 -9 11 -20 11 -13 0 -20 7 -20 18 0 24 19 42 36 35 8 -3 14 0 14 6 0 6 -11 11 -25 11 -18 0 -29 -8 -37 -26z"/> <path d="M2250 98 c0 -13 -3 -33 -6 -45 -4 -13 -2 -23 4 -23 5 0 13 15 16 34 4 19 13 37 21 40 12 4 15 -4 15 -35 0 -24 4 -38 10 -34 6 3 10 24 10 46 0 38 -1 39 -35 39 -30 0 -35 -3 -35 -22z"/> <path d="M2388 95 c-14 -31 -2 -58 29 -63 27 -4 45 21 41 55 -2 22 -9 29 -30 31 -22 3 -30 -2 -40 -23z m56 7 c3 -5 2 -18 -1 -30 -7 -27 -43 -30 -43 -4 0 29 32 54 44 34z"/> <path d="M2621 106 c-20 -23 -10 -70 15 -74 29 -4 56 25 52 57 -2 20 -9 27 -29 29 -14 2 -31 -4 -38 -12z m49 -32 c0 -17 -5 -24 -20 -24 -14 0 -20 7 -20 24 0 23 17 38 33 29 4 -2 7 -15 7 -29z"/> <path d="M2762 108 c-28 -28 -3 -92 29 -72 5 3 9 0 9 -5 0 -6 -12 -11 -27 -11 -21 0 -24 -3 -15 -12 19 -19 58 5 66 42 11 57 8 66 -22 68 -15 1 -33 -3 -40 -10z m43 -29 c0 -15 -7 -25 -17 -27 -13 -3 -18 3 -18 21 0 13 3 27 7 31 13 12 28 -1 28 -25z"/> <path d="M2894 103 c17 -60 17 -71 -1 -81 -10 -6 -15 -14 -11 -18 11 -10 34 12 63 61 27 47 30 55 17 55 -5 0 -15 -15 -24 -32 l-15 -33 -7 33 c-4 17 -12 32 -17 32 -6 0 -8 -8 -5 -17z"/> </g> </svg> 